<svg id="Layer_1" data-name="Layer 1" xmlns="http://www.w3.org/2000/svg" width="70" height="70" viewBox="0 0 70 70"><defs><style>.cls-1{fill:#ef3f3f;}.cls-2,.cls-3{fill:#fff;}.cls-3{fill-rule:evenodd;}</style></defs><title>logo</title><rect class="cls-1" width="70" height="70"/><path class="cls-2" d="M953.06,1660.14a1,1,0,0,1-.7.16h-1.25a1.1,1.1,0,0,1-.71-0.16,1,1,0,0,1-.18-0.7v-2.32h-2.7v2.73q0,2.61,2.76,2.61h2.88q2.79,0,2.79-2.61v-5.35q0-2.61-2.73-2.61h-2.17a1.1,1.1,0,0,1-.71-0.16,1,1,0,0,1-.18-0.7v-4.13a1,1,0,0,1,.18-0.7,1.11,1.11,0,0,1,.71-0.16h1.25a1.11,1.11,0,0,1,.71.16,1,1,0,0,1,.18.7v2.32h2.7v-2.73q0-2.61-2.76-2.61h-2.91q-2.76,0-2.76,2.61v4.9q0,2.64,2.7,2.64h2.2a0.68,0.68,0,0,1,.86.86v4.55A1,1,0,0,1,953.06,1660.14Z" transform="translate(-925 -1632)"/><path class="cls-2" d="M967.07,1646.2l1.69,9.8h-3.24Zm5.5,16.28-3.54-18.6h-3.89l-3.3,18.6h2.67l0.68-4.31h3.92l0.74,4.31h2.7Z" transform="translate(-925 -1632)"/><path class="cls-2" d="M956.14,1668.77q0-2.61-2.76-2.61H950.2q-2.76,0-2.76,2.61v13.37q0,2.64,2.76,2.64h3.18q2.76,0,2.76-2.64v-7h-4.19v2.08h1.49v4.55a1,1,0,0,1-.18.7,1.1,1.1,0,0,1-.71.16H951a1.1,1.1,0,0,1-.71-0.16,1,1,0,0,1-.18-0.7v-12.69a1,1,0,0,1,.18-0.7,1.1,1.1,0,0,1,.71-0.16h1.52a1.1,1.1,0,0,1,.71.16,1,1,0,0,1,.18.7v2.47h2.7v-2.82Z" transform="translate(-925 -1632)"/><path class="cls-2" d="M966,1676.23h4.28v-2.17H966v-5.73h5.17v-2.17h-7.87v18.6h8.08v-2.17H966v-6.36Z" transform="translate(-925 -1632)"/><path class="cls-3" d="M947.6,1687.75h23.77v2.38H947.6v-2.38Z" transform="translate(-925 -1632)"/></svg>